<svg width="31" height="31" viewBox="0 0 31 31" fill="none" xmlns="http://www.w3.org/2000/svg">
<g clip-path="url(#clip0_94_306)">
<path d="M15.5001 31C11.5523 30.9973 7.75436 29.4885 4.8811 26.7812C2.00784 24.0739 0.275853 20.3724 0.0385479 16.4317C-0.198757 12.4911 1.0765 8.60842 3.60411 5.57592C6.13173 2.54342 9.7212 0.589652 13.6401 0.11327C16.0236 -0.181965 18.4431 0.0855068 20.7045 0.894232C20.8521 0.947076 20.9878 1.02847 21.104 1.13377C21.2201 1.23906 21.3143 1.3662 21.3813 1.50791C21.4483 1.64963 21.4867 1.80315 21.4943 1.95971C21.502 2.11628 21.4787 2.27281 21.4259 2.42039C21.373 2.56796 21.2916 2.70368 21.1864 2.81979C21.0811 2.93591 20.9539 3.03015 20.8122 3.09714C20.6705 3.16412 20.517 3.20253 20.3604 3.21018C20.2038 3.21784 20.0473 3.19458 19.8997 3.14173C16.9702 2.09941 13.7657 2.1318 10.8579 3.23313C7.95004 4.33445 5.52808 6.43307 4.02411 9.15454C2.52013 11.876 2.03198 15.0433 2.64675 18.0913C3.26152 21.1394 4.93921 23.8698 7.3805 25.7956C9.42358 27.3976 11.8962 28.3571 14.485 28.5527C17.0739 28.7483 19.6626 28.1712 21.9232 26.8944C24.1837 25.6175 26.0145 23.6985 27.1836 21.3804C28.3527 19.0623 28.8075 16.4493 28.4903 13.8725C28.4715 13.7159 28.4838 13.5572 28.5263 13.4053C28.5689 13.2535 28.6409 13.1115 28.7384 12.9875C28.8358 12.8635 28.9567 12.7599 29.0942 12.6826C29.2316 12.6053 29.383 12.5559 29.5395 12.5371C29.6961 12.5183 29.8549 12.5306 30.0067 12.5731C30.1586 12.6157 30.3005 12.6877 30.4245 12.7852C30.5485 12.8826 30.6521 13.0035 30.7294 13.141C30.8067 13.2784 30.8561 13.4298 30.8749 13.5863C31.1461 15.766 30.9509 17.9785 30.3023 20.077C29.6537 22.1755 28.5665 24.1123 27.1127 25.7588C25.659 27.4054 23.8719 28.7241 21.8698 29.6277C19.8678 30.5313 17.6966 30.9991 15.5001 31Z" fill="#8AA8EC"/>
<path d="M15.4999 26.1473C15.1837 26.1473 14.8804 26.0217 14.6568 25.7981C14.4332 25.5745 14.3076 25.2712 14.3076 24.955V13.5088C14.3076 13.1926 14.4332 12.8893 14.6568 12.6657C14.8804 12.4421 15.1837 12.3165 15.4999 12.3165C15.8161 12.3165 16.1194 12.4421 16.343 12.6657C16.5666 12.8893 16.6922 13.1926 16.6922 13.5088V24.955C16.6922 25.2712 16.5666 25.5745 16.343 25.7981C16.1194 26.0217 15.8161 26.1473 15.4999 26.1473Z" fill="#8AA8EC"/>
<path d="M15.4999 10.8977C16.3461 10.8977 17.032 10.2118 17.032 9.36561C17.032 8.51945 16.3461 7.8335 15.4999 7.8335C14.6537 7.8335 13.9678 8.51945 13.9678 9.36561C13.9678 10.2118 14.6537 10.8977 15.4999 10.8977Z" fill="#8AA8EC"/>
</g>
<defs>
<clipPath id="clip0_94_306">
<rect width="31" height="31" fill="white"/>
</clipPath>
</defs>
</svg>
