<svg width="27" height="30" viewBox="0 0 27 30" fill="none" xmlns="http://www.w3.org/2000/svg">
<path d="M19.6875 13.4484C15.6555 13.4484 12.375 16.9817 12.375 21.3244C12.375 25.6417 15.6555 29.1532 19.6875 29.1532C23.7195 29.1532 27 25.6199 27 21.2772C27 16.9599 23.7195 13.4484 19.6875 13.4484ZM19.6875 27.9415C16.2765 27.9415 13.5 24.9729 13.5 21.3244C13.5 17.6494 16.2765 14.6601 19.6875 14.6601C23.0985 14.6601 25.875 17.6288 25.875 21.2772C25.875 24.9523 23.0985 27.9415 19.6875 27.9415ZM21.2108 22.0599C21.4301 22.2962 21.4301 22.6803 21.2108 22.9166C21.1005 23.0354 20.9565 23.0935 20.8125 23.0935C20.6685 23.0935 20.5245 23.0342 20.4142 22.9166L19.2892 21.7049C19.1835 21.591 19.125 21.4371 19.125 21.276V18.8526C19.125 18.5182 19.377 18.2467 19.6875 18.2467C19.998 18.2467 20.25 18.5182 20.25 18.8526V21.0252L21.2108 22.0599ZM21.9375 2.4959H20.25V0.678358C20.25 0.34393 19.998 0.0725098 19.6875 0.0725098C19.377 0.0725098 19.125 0.34393 19.125 0.678358V2.4959H7.875V0.678358C7.875 0.34393 7.623 0.0725098 7.3125 0.0725098C7.002 0.0725098 6.75 0.34393 6.75 0.678358V2.4959H5.0625C2.27138 2.4959 0 4.94232 0 7.94853V23.7006C0 26.7068 2.27138 29.1532 5.0625 29.1532H11.8125C12.123 29.1532 12.375 28.8818 12.375 28.5474C12.375 28.2129 12.123 27.9415 11.8125 27.9415H5.0625C2.89125 27.9415 1.125 26.0392 1.125 23.7006V10.9778H25.875V12.7953C25.875 13.1297 26.127 13.4012 26.4375 13.4012C26.748 13.4012 27 13.1297 27 12.7953V7.94853C27 4.94232 24.7286 2.4959 21.9375 2.4959ZM1.125 9.76608V7.94853C1.125 5.60996 2.89125 3.7076 5.0625 3.7076H21.9375C24.1087 3.7076 25.875 5.60996 25.875 7.94853V9.76608H1.125Z" fill="#8AA8EC"/>
</svg>
