<svg width="141" height="33" viewBox="0 0 141 33" fill="none" xmlns="http://www.w3.org/2000/svg">
<g filter="url(#filter0_d_94_477)">
<path d="M14.7578 13.2505L18.1094 13.2036C17.9609 14.4614 17.5352 15.5396 16.832 16.438C16.1367 17.3286 15.2617 18.0083 14.207 18.4771C13.1523 18.938 12.0078 19.1567 10.7734 19.1333C9.63281 19.1099 8.67188 18.8677 7.89062 18.4067C7.10938 17.938 6.49609 17.313 6.05078 16.5317C5.60547 15.7505 5.3125 14.8794 5.17188 13.9185C5.03125 12.9575 5.02344 11.9731 5.14844 10.9653L5.3125 9.78174C5.46875 8.71924 5.75391 7.69189 6.16797 6.69971C6.58984 5.70752 7.14062 4.82471 7.82031 4.05127C8.5 3.27783 9.30469 2.66846 10.2344 2.22314C11.1641 1.77783 12.2188 1.56689 13.3984 1.59033C14.6328 1.61377 15.6758 1.87939 16.5273 2.38721C17.3867 2.88721 18.0469 3.58643 18.5078 4.48486C18.9766 5.37549 19.2383 6.41846 19.293 7.61377L15.8828 7.60205C15.8906 6.96924 15.8125 6.41455 15.6484 5.93799C15.4922 5.45361 15.2188 5.07861 14.8281 4.81299C14.4375 4.53955 13.8984 4.39111 13.2109 4.36768C12.4609 4.34424 11.8242 4.49268 11.3008 4.81299C10.7773 5.1333 10.3438 5.56299 10 6.10205C9.66406 6.64111 9.39844 7.23096 9.20312 7.87158C9.01562 8.51221 8.875 9.14111 8.78125 9.7583L8.61719 10.9771C8.55469 11.4849 8.51172 12.0474 8.48828 12.6646C8.46484 13.2739 8.51562 13.856 8.64062 14.4106C8.76562 14.9653 9.00781 15.4263 9.36719 15.7935C9.72656 16.1528 10.2617 16.3442 10.9727 16.3677C11.6758 16.3911 12.2812 16.2817 12.7891 16.0396C13.3047 15.7974 13.7227 15.438 14.043 14.9614C14.3711 14.4849 14.6094 13.9146 14.7578 13.2505ZM20.3555 12.7583L20.3906 12.5122C20.4844 11.6138 20.6992 10.77 21.0352 9.98096C21.3789 9.18408 21.832 8.48486 22.3945 7.8833C22.9648 7.27393 23.6328 6.80127 24.3984 6.46533C25.1719 6.12158 26.0391 5.96143 27 5.98486C27.9141 6.00049 28.7031 6.18408 29.3672 6.53564C30.0312 6.88721 30.5742 7.35986 30.9961 7.95361C31.4258 8.54736 31.7266 9.22705 31.8984 9.99268C32.0781 10.7583 32.1289 11.5669 32.0508 12.4185L32.0273 12.6763C31.9258 13.5669 31.6992 14.4067 31.3477 15.1958C31.0039 15.9771 30.5469 16.6685 29.9766 17.27C29.4141 17.8638 28.7461 18.3286 27.9727 18.6646C27.1992 19.0005 26.3398 19.1567 25.3945 19.1333C24.4961 19.1177 23.7109 18.938 23.0391 18.5942C22.3672 18.2427 21.8203 17.7739 21.3984 17.188C20.9766 16.5942 20.6797 15.9185 20.5078 15.1606C20.3359 14.4028 20.2852 13.6021 20.3555 12.7583ZM23.6836 12.5122L23.6602 12.77C23.6211 13.145 23.6094 13.5474 23.625 13.9771C23.6406 14.3989 23.707 14.8013 23.8242 15.1841C23.9492 15.5669 24.1523 15.8794 24.4336 16.1216C24.7148 16.3638 25.1016 16.4927 25.5938 16.5083C26.1172 16.5239 26.5664 16.4185 26.9414 16.1919C27.3164 15.9653 27.625 15.6606 27.8672 15.2778C28.1094 14.8872 28.3008 14.4653 28.4414 14.0122C28.582 13.5513 28.6758 13.1021 28.7227 12.6646L28.7461 12.4185C28.7773 12.0435 28.7852 11.6411 28.7695 11.2114C28.7617 10.7739 28.6953 10.3638 28.5703 9.98096C28.4453 9.59033 28.2422 9.27002 27.9609 9.02002C27.6797 8.77002 27.293 8.63721 26.8008 8.62158C26.2773 8.59814 25.8281 8.70752 25.4531 8.94971C25.0781 9.18408 24.7695 9.49658 24.5273 9.88721C24.2852 10.2778 24.0938 10.7036 23.9531 11.1646C23.8203 11.6255 23.7305 12.0747 23.6836 12.5122ZM40.0273 0.898926L36.9102 18.8989H33.6055L36.7227 0.898926H40.0273ZM46.6914 0.898926L43.5742 18.8989H40.2695L43.3867 0.898926H46.6914ZM53.9297 16.0396L54.8203 10.356C54.8594 10.0122 54.8438 9.69189 54.7734 9.39502C54.7031 9.09814 54.5586 8.86377 54.3398 8.69189C54.1289 8.51221 53.8281 8.41455 53.4375 8.39893C53.0859 8.39111 52.7695 8.45361 52.4883 8.58643C52.2148 8.71143 51.9883 8.89502 51.8086 9.13721C51.6289 9.37158 51.5039 9.65283 51.4336 9.98096L48.1289 10.0044C48.168 9.30127 48.3633 8.6958 48.7148 8.18799C49.0742 7.67236 49.5273 7.25049 50.0742 6.92236C50.6211 6.59424 51.2148 6.35205 51.8555 6.1958C52.5039 6.03955 53.1367 5.96924 53.7539 5.98486C54.6367 6.00049 55.4219 6.18408 56.1094 6.53564C56.8047 6.88721 57.3359 7.39111 57.7031 8.04736C58.0781 8.6958 58.2188 9.48486 58.125 10.4146L57.2461 15.8521C57.1758 16.3052 57.1211 16.7817 57.082 17.2817C57.043 17.7739 57.1133 18.2427 57.293 18.688L57.2695 18.8989L54.0352 18.9106C53.8867 18.4497 53.8125 17.9771 53.8125 17.4927C53.8203 17.0005 53.8594 16.5161 53.9297 16.0396ZM55.1953 11.1763L54.8789 13.0864L53.2031 13.0747C52.8672 13.0825 52.5312 13.1294 52.1953 13.2153C51.8672 13.2935 51.5625 13.4185 51.2812 13.5903C51 13.7544 50.7656 13.9692 50.5781 14.2349C50.3984 14.5005 50.2852 14.8247 50.2383 15.2075C50.1992 15.481 50.2266 15.7271 50.3203 15.9458C50.4141 16.1567 50.5586 16.3247 50.7539 16.4497C50.957 16.5747 51.1992 16.6411 51.4805 16.6489C51.8789 16.6567 52.2695 16.5825 52.6523 16.4263C53.0352 16.2622 53.3672 16.0317 53.6484 15.7349C53.9297 15.438 54.125 15.0942 54.2344 14.7036L54.9375 16.1685C54.75 16.606 54.5117 17.0083 54.2227 17.3755C53.9414 17.7427 53.6172 18.063 53.25 18.3364C52.8828 18.6021 52.4805 18.8052 52.043 18.9458C51.6055 19.0942 51.1367 19.1646 50.6367 19.1567C49.9414 19.1411 49.3008 18.9771 48.7148 18.6646C48.1367 18.3442 47.6758 17.9106 47.332 17.3638C46.9961 16.8091 46.8438 16.1646 46.875 15.4302C46.9062 14.6021 47.1133 13.9146 47.4961 13.3677C47.8789 12.813 48.3711 12.3755 48.9727 12.0552C49.582 11.7349 50.2422 11.5083 50.9531 11.3755C51.6719 11.2349 52.3828 11.1646 53.0859 11.1646L55.1953 11.1763ZM62.8438 0.898926H66.1484L63.4883 16.1802L62.7031 18.8989H59.7148L62.8438 0.898926ZM71.9141 12.3599L71.8906 12.6177C71.7891 13.3989 71.6094 14.1802 71.3516 14.9614C71.1016 15.7427 70.75 16.4536 70.2969 17.0942C69.8516 17.7271 69.293 18.2349 68.6211 18.6177C67.957 18.9927 67.168 19.1685 66.2539 19.145C65.4492 19.1216 64.7852 18.9106 64.2617 18.5122C63.7383 18.106 63.332 17.5903 63.043 16.9653C62.7539 16.3325 62.5586 15.6567 62.457 14.938C62.3555 14.2114 62.3164 13.5161 62.3398 12.8521L62.3984 12.3013C62.5234 11.5981 62.7305 10.8716 63.0195 10.1216C63.3086 9.37158 63.6797 8.68018 64.1328 8.04736C64.5938 7.41455 65.1406 6.90674 65.7734 6.52393C66.4141 6.1333 67.1484 5.94971 67.9766 5.97314C68.8516 5.98877 69.5625 6.19189 70.1094 6.58252C70.6641 6.97314 71.0859 7.48486 71.375 8.11768C71.6641 8.74268 71.8438 9.42627 71.9141 10.1685C71.9922 10.9106 71.9922 11.6411 71.9141 12.3599ZM68.5977 12.606L68.6094 12.3481C68.6484 11.9966 68.6719 11.6099 68.6797 11.188C68.6953 10.7661 68.6602 10.3638 68.5742 9.98096C68.4883 9.59814 68.3203 9.28174 68.0703 9.03174C67.8203 8.77393 67.4531 8.63721 66.9688 8.62158C66.4922 8.59814 66.0742 8.67236 65.7148 8.84424C65.3633 9.01611 65.0625 9.25439 64.8125 9.55908C64.5625 9.86377 64.3594 10.2114 64.2031 10.6021C64.0469 10.9849 63.9336 11.3833 63.8633 11.7974L63.6406 13.3442C63.6094 13.8364 63.6367 14.3208 63.7227 14.7974C63.8086 15.2739 64 15.6724 64.2969 15.9927C64.6016 16.3052 65.0469 16.4692 65.6328 16.4849C66.1719 16.5083 66.6211 16.4028 66.9805 16.1685C67.3398 15.9263 67.6289 15.6099 67.8477 15.2192C68.0664 14.8286 68.2305 14.4028 68.3398 13.9419C68.457 13.4731 68.543 13.0278 68.5977 12.606Z" fill="white"/>
<path d="M82.9375 14.3521C83.0078 13.938 82.9727 13.5903 82.832 13.3091C82.6992 13.02 82.4961 12.7778 82.2227 12.5825C81.957 12.3794 81.6562 12.2075 81.3203 12.0669C80.9922 11.9263 80.6641 11.7974 80.3359 11.6802C79.7344 11.4458 79.1406 11.1802 78.5547 10.8833C77.9766 10.5864 77.4492 10.2349 76.9727 9.82861C76.4961 9.41455 76.125 8.93408 75.8594 8.38721C75.5938 7.83252 75.4844 7.18408 75.5312 6.44189C75.5859 5.59814 75.8242 4.86768 76.2461 4.25049C76.668 3.6333 77.2031 3.12939 77.8516 2.73877C78.5078 2.34033 79.2188 2.04736 79.9844 1.85986C80.7578 1.67236 81.5156 1.58643 82.2578 1.60205C83.3203 1.61768 84.2656 1.84033 85.0938 2.27002C85.9219 2.69189 86.5703 3.29346 87.0391 4.07471C87.5156 4.84814 87.7383 5.77783 87.707 6.86377H84.3086C84.3398 6.34814 84.2734 5.90283 84.1094 5.52783C83.9531 5.14502 83.6992 4.85205 83.3477 4.64893C83.0039 4.43799 82.5625 4.32471 82.0234 4.30908C81.5625 4.30127 81.1094 4.37549 80.6641 4.53174C80.2266 4.68018 79.8477 4.91455 79.5273 5.23486C79.2148 5.54736 79.0195 5.95361 78.9414 6.45361C78.8789 6.8208 78.9297 7.13721 79.0938 7.40283C79.2656 7.66846 79.4961 7.89502 79.7852 8.08252C80.082 8.27002 80.3945 8.43018 80.7227 8.56299C81.0586 8.68799 81.3594 8.80127 81.625 8.90283C82.2578 9.12939 82.8672 9.39893 83.4531 9.71143C84.0469 10.0239 84.5703 10.395 85.0234 10.8247C85.4766 11.2466 85.8242 11.7466 86.0664 12.3247C86.3086 12.895 86.4062 13.5591 86.3594 14.3169C86.2891 15.1841 86.0547 15.9263 85.6562 16.5435C85.2578 17.1528 84.7422 17.6528 84.1094 18.0435C83.4766 18.4263 82.7852 18.7075 82.0352 18.8872C81.2852 19.0669 80.5234 19.1528 79.75 19.145C78.9062 19.1294 78.1133 18.9966 77.3711 18.7466C76.6289 18.4966 75.9805 18.1372 75.4258 17.6685C74.8711 17.1919 74.4414 16.6099 74.1367 15.9224C73.8398 15.2271 73.7031 14.4341 73.7266 13.5435L77.1602 13.5552C77.1289 14.0317 77.1641 14.4497 77.2656 14.8091C77.375 15.1606 77.5469 15.4575 77.7812 15.6997C78.0234 15.9419 78.3203 16.1255 78.6719 16.2505C79.0312 16.3677 79.4492 16.4302 79.9258 16.438C80.3867 16.438 80.832 16.3677 81.2617 16.2271C81.6914 16.0864 82.0586 15.8638 82.3633 15.5591C82.668 15.2466 82.8594 14.8442 82.9375 14.3521ZM96.4219 6.21924L96 8.60986H88.8164L89.2383 6.21924H96.4219ZM91.5586 3.09033H94.8516L92.7891 15.1021C92.7578 15.3755 92.7578 15.6099 92.7891 15.8052C92.8281 15.9927 92.918 16.1372 93.0586 16.2388C93.1992 16.3403 93.418 16.3989 93.7148 16.4146C93.8789 16.4224 94.043 16.4185 94.207 16.4028C94.3711 16.3794 94.5391 16.356 94.7109 16.3325L94.4766 18.8521C94.1641 18.9458 93.8477 19.0122 93.5273 19.0513C93.2148 19.0981 92.8945 19.1216 92.5664 19.1216C91.8164 19.106 91.1992 18.9419 90.7148 18.6294C90.2383 18.3169 89.8945 17.8872 89.6836 17.3403C89.4805 16.7856 89.4141 16.145 89.4844 15.4185L91.5586 3.09033ZM104.375 15.688L106.016 6.21924H109.32L107.117 18.8989H104.023L104.375 15.688ZM105.125 13.2505L106.074 13.2271C105.988 13.9692 105.824 14.6958 105.582 15.4067C105.34 16.1177 105.008 16.7583 104.586 17.3286C104.164 17.8989 103.641 18.3481 103.016 18.6763C102.391 19.0044 101.652 19.1606 100.801 19.145C100.105 19.1294 99.5195 18.9966 99.043 18.7466C98.5664 18.4888 98.1875 18.145 97.9062 17.7153C97.625 17.2778 97.4336 16.7778 97.332 16.2153C97.2383 15.6528 97.2227 15.0513 97.2852 14.4106L98.6562 6.21924H101.949L100.566 14.4575C100.543 14.7231 100.543 14.9771 100.566 15.2192C100.59 15.4536 100.652 15.6646 100.754 15.8521C100.855 16.0396 101 16.1919 101.188 16.3091C101.375 16.4185 101.625 16.4771 101.938 16.4849C102.602 16.5083 103.152 16.3755 103.59 16.0864C104.027 15.7896 104.367 15.3911 104.609 14.8911C104.859 14.3911 105.031 13.8442 105.125 13.2505ZM117.883 15.9458L120.484 0.898926H123.801L120.684 18.8989H117.719L117.883 15.9458ZM110.664 12.8052L110.688 12.5474C110.789 11.7739 110.969 10.9927 111.227 10.2036C111.492 9.41455 111.852 8.6958 112.305 8.04736C112.766 7.39893 113.332 6.8833 114.004 6.50049C114.676 6.11768 115.473 5.94189 116.395 5.97314C117.184 6.00439 117.836 6.22705 118.352 6.64111C118.867 7.04736 119.266 7.57471 119.547 8.22314C119.836 8.86377 120.031 9.54736 120.133 10.2739C120.242 10.9927 120.285 11.6763 120.262 12.3247L120.203 12.8872C120.078 13.5825 119.867 14.3013 119.57 15.0435C119.281 15.7778 118.902 16.4614 118.434 17.0942C117.973 17.7192 117.422 18.2231 116.781 18.606C116.148 18.9888 115.426 19.1685 114.613 19.145C113.762 19.1216 113.062 18.9146 112.516 18.5239C111.977 18.1255 111.559 17.6138 111.262 16.9888C110.965 16.3638 110.773 15.6841 110.688 14.9497C110.602 14.2153 110.594 13.5005 110.664 12.8052ZM114.004 12.5356L113.98 12.7817C113.949 13.1177 113.93 13.4966 113.922 13.9185C113.922 14.3325 113.965 14.7349 114.051 15.1255C114.145 15.5083 114.312 15.8286 114.555 16.0864C114.805 16.3364 115.164 16.4731 115.633 16.4966C116.227 16.52 116.738 16.3833 117.168 16.0864C117.598 15.7817 117.941 15.3911 118.199 14.9146C118.465 14.438 118.641 13.938 118.727 13.4146L118.949 11.856C118.988 11.4966 118.988 11.1333 118.949 10.7661C118.91 10.3989 118.82 10.0552 118.68 9.73486C118.547 9.41455 118.344 9.15283 118.07 8.94971C117.805 8.74658 117.457 8.64111 117.027 8.6333C116.504 8.60986 116.059 8.72314 115.691 8.97314C115.332 9.21533 115.039 9.53564 114.812 9.93408C114.586 10.3247 114.406 10.7505 114.273 11.2114C114.148 11.6724 114.059 12.1138 114.004 12.5356ZM127.629 17.2935L132.762 6.21924H136.395L128.965 20.8208C128.746 21.2817 128.496 21.7075 128.215 22.0981C127.941 22.4966 127.629 22.8403 127.277 23.1294C126.934 23.4263 126.539 23.6528 126.094 23.8091C125.656 23.9731 125.164 24.0552 124.617 24.0552C124.344 24.0552 124.078 24.0317 123.82 23.9849C123.562 23.938 123.305 23.8833 123.047 23.8208L123.281 21.3247C123.367 21.3325 123.453 21.3403 123.539 21.3481C123.617 21.356 123.695 21.3599 123.773 21.3599C124.164 21.3677 124.508 21.3208 124.805 21.2192C125.109 21.1255 125.375 20.9692 125.602 20.7505C125.828 20.5396 126.031 20.2622 126.211 19.9185L127.629 17.2935ZM128.156 6.21924L129.258 15.5825L129.105 18.9927L126.902 19.2505L124.734 6.21924H128.156Z" fill="#829BD0"/>
</g>
<defs>
<filter id="filter0_d_94_477" x="0.960938" y="0.898926" width="139.434" height="31.1562" filterUnits="userSpaceOnUse" color-interpolation-filters="sRGB">
<feFlood flood-opacity="0" result="BackgroundImageFix"/>
<feColorMatrix in="SourceAlpha" type="matrix" values="0 0 0 0 0 0 0 0 0 0 0 0 0 0 0 0 0 0 127 0" result="hardAlpha"/>
<feOffset dy="4"/>
<feGaussianBlur stdDeviation="2"/>
<feComposite in2="hardAlpha" operator="out"/>
<feColorMatrix type="matrix" values="0 0 0 0 0 0 0 0 0 0 0 0 0 0 0 0 0 0 0.25 0"/>
<feBlend mode="normal" in2="BackgroundImageFix" result="effect1_dropShadow_94_477"/>
<feBlend mode="normal" in="SourceGraphic" in2="effect1_dropShadow_94_477" result="shape"/>
</filter>
</defs>
</svg>
