<svg width="42" height="38" viewBox="0 0 42 38" fill="none" xmlns="http://www.w3.org/2000/svg">
<path d="M18.8794 19.5195C18.8794 20.0313 19.1028 20.5221 19.5005 20.884C19.8981 21.2459 20.4375 21.4492 20.9999 21.4492C21.5623 21.4492 22.1017 21.2459 22.4993 20.884C22.897 20.5221 23.1204 20.0313 23.1204 19.5195C23.1204 19.2661 23.0656 19.0152 22.959 18.7811C22.8524 18.547 22.6962 18.3342 22.4993 18.155C22.3024 17.9758 22.0687 17.8337 21.8114 17.7367C21.5541 17.6398 21.2784 17.5898 20.9999 17.5898C20.7214 17.5898 20.4457 17.6398 20.1884 17.7367C19.9311 17.8337 19.6974 17.9758 19.5005 18.155C19.3036 18.3342 19.1474 18.547 19.0408 18.7811C18.9342 19.0152 18.8794 19.2661 18.8794 19.5195Z" fill="#D9D9D9"/>
<path d="M31.5 13.0625C31.5 13.2258 31.3523 13.3594 31.1719 13.3594H28.875C28.6945 13.3594 28.5469 13.2258 28.5469 13.0625V10.9844H22.4766V13.0625C22.4766 13.2258 22.3289 13.3594 22.1484 13.3594H19.8516C19.6711 13.3594 19.5234 13.2258 19.5234 13.0625V10.9844H13.4531V13.0625C13.4531 13.2258 13.3055 13.3594 13.125 13.3594H10.8281C10.6477 13.3594 10.5 13.2258 10.5 13.0625V10.9844H5.57812V29.3906H36.4219V10.9844H31.5V13.0625ZM27.1113 27.3125H25.3148C25.1426 27.3125 25.0031 27.19 24.9908 27.0342C24.835 25.1602 23.1041 23.6758 21.0041 23.6758C18.9041 23.6758 17.1732 25.1564 17.0174 27.0342C17.0051 27.19 16.8656 27.3125 16.6934 27.3125H14.8928C14.8483 27.3125 14.8042 27.3044 14.7633 27.2886C14.7224 27.2727 14.6854 27.2495 14.6548 27.2204C14.6241 27.1912 14.6002 27.1567 14.5848 27.119C14.5693 27.0812 14.5624 27.041 14.5646 27.0008C14.6795 25.0229 15.873 23.3047 17.6244 22.3213C16.882 21.5791 16.4309 20.5994 16.4309 19.5195C16.4309 17.2225 18.4775 15.3633 21 15.3633C23.5225 15.3633 25.5691 17.2225 25.5691 19.5195C25.5691 20.5994 25.118 21.5828 24.3756 22.3213C26.127 23.301 27.3246 25.0229 27.4395 27.0008C27.4417 27.041 27.4348 27.0812 27.4193 27.119C27.4039 27.1567 27.38 27.1912 27.3493 27.2204C27.3187 27.2495 27.2817 27.2727 27.2408 27.2886C27.1999 27.3044 27.1558 27.3125 27.1113 27.3125Z" fill="#D7E3FC"/>
<path d="M24.3756 22.3213C25.1461 21.555 25.5718 20.5555 25.5691 19.5195C25.5691 17.2225 23.5224 15.3633 21 15.3633C18.4775 15.3633 16.4308 17.2225 16.4308 19.5195C16.4308 20.5994 16.882 21.5791 17.6244 22.3213C16.7349 22.82 15.992 23.5061 15.4592 24.321C14.9263 25.1358 14.6194 26.0553 14.5646 27.0008C14.5624 27.041 14.5692 27.0812 14.5847 27.119C14.6002 27.1567 14.624 27.1912 14.6547 27.2204C14.6854 27.2495 14.7223 27.2727 14.7633 27.2886C14.8042 27.3044 14.8482 27.3126 14.8927 27.3125H16.6933C16.8656 27.3125 17.005 27.19 17.0174 27.0342C17.1732 25.1564 18.9041 23.6758 21.0041 23.6758C23.1041 23.6758 24.8349 25.1602 24.9908 27.0342C25.0031 27.19 25.1425 27.3125 25.3148 27.3125H27.1113C27.1558 27.3126 27.1999 27.3044 27.2408 27.2886C27.2817 27.2727 27.3186 27.2495 27.3493 27.2204C27.38 27.1912 27.4038 27.1567 27.4193 27.119C27.4348 27.0812 27.4416 27.041 27.4394 27.0008C27.3246 25.0229 26.1269 23.301 24.3756 22.3213ZM21 21.4492C19.831 21.4492 18.8795 20.5846 18.8795 19.5195C18.8795 18.4545 19.831 17.5898 21 17.5898C22.1689 17.5898 23.1205 18.4545 23.1205 19.5195C23.1205 20.5846 22.1689 21.4492 21 21.4492Z" fill="#8AA8EC"/>
<path d="M38.0625 8.3125H31.5V6.23438C31.5 6.07109 31.3523 5.9375 31.1719 5.9375H28.875C28.6945 5.9375 28.5469 6.07109 28.5469 6.23438V8.3125H22.4766V6.23438C22.4766 6.07109 22.3289 5.9375 22.1484 5.9375H19.8516C19.6711 5.9375 19.5234 6.07109 19.5234 6.23438V8.3125H13.4531V6.23438C13.4531 6.07109 13.3055 5.9375 13.125 5.9375H10.8281C10.6477 5.9375 10.5 6.07109 10.5 6.23438V8.3125H3.9375C3.21152 8.3125 2.625 8.84316 2.625 9.5V30.875C2.625 31.5318 3.21152 32.0625 3.9375 32.0625H38.0625C38.7885 32.0625 39.375 31.5318 39.375 30.875V9.5C39.375 8.84316 38.7885 8.3125 38.0625 8.3125ZM36.4219 29.3906H5.57812V10.9844H10.5V13.0625C10.5 13.2258 10.6477 13.3594 10.8281 13.3594H13.125C13.3055 13.3594 13.4531 13.2258 13.4531 13.0625V10.9844H19.5234V13.0625C19.5234 13.2258 19.6711 13.3594 19.8516 13.3594H22.1484C22.3289 13.3594 22.4766 13.2258 22.4766 13.0625V10.9844H28.5469V13.0625C28.5469 13.2258 28.6945 13.3594 28.875 13.3594H31.1719C31.3523 13.3594 31.5 13.2258 31.5 13.0625V10.9844H36.4219V29.3906Z" fill="#8AA8EC"/>
</svg>
