<svg width="62" height="53" viewBox="0 0 62 53" fill="none" xmlns="http://www.w3.org/2000/svg">
<path d="M12.1581 24.5283C12.1581 24.5283 10.6644 23.2156 9.1011 23.7687C8.67159 23.9206 6.89159 24.3764 8.67159 25.8958C10.4516 27.4151 13.6866 29.9981 13.6866 30.7578C13.6866 31.5174 11.3732 33.2981 10.7534 35.4678C9.74765 38.9888 11.083 42.6037 13.6866 45.1918C16.8964 48.3824 25.1503 47.4708 25.456 47.3189C25.456 47.3189 28.9715 51.877 29.7358 51.877C30.5 51.877 34.1684 47.3189 34.1684 47.3189C34.1684 47.3189 38.8077 48.1053 41.5052 47.3189C45.8541 46.0508 48.7301 42.2259 48.842 38.9623C48.9539 35.6987 46.6865 32.7329 45.6166 31.6694C44.5466 30.6058 50.5078 27.5671 50.9663 26.8074C51.4249 26.0477 50.9819 25.288 50.6762 24.9842C50.1697 24.4807 48.9949 24.8322 48.9949 24.8322C48.6892 24.9842 39.0001 32.8849 29.7358 32.8849C22.3928 33.141 13.0001 25.8958 12.1581 24.5283Z" fill="black" stroke="black"/>
<path d="M30.5829 1.03894C28.7487 1.03894 2 11.9784 2 11.9784L15.9093 17.752L14.228 23.5256C14.228 23.5256 21.5 30.5099 31.9585 29.9069C39.3103 29.4831 47.5492 22.9178 47.5492 22.9178C47.5492 22.9178 46.4591 17.9982 46.1736 17.752C45.8881 17.5058 54.1218 14.4094 54.4275 14.4094C54.7332 14.4094 54.4275 18.6636 54.4275 18.6636C54.4275 18.6636 51.4704 20.0664 51.5233 21.7023C51.567 23.0547 53.6632 24.4372 53.6632 24.4372C52.9895 28.013 52.7834 30.009 52.7461 33.5534H57.4845C57.442 29.9864 57.2222 27.9908 56.5674 24.4372C56.5674 24.4372 58.3863 22.9859 58.4016 21.7023C58.4205 20.1059 55.6503 18.6636 55.6503 18.6636V14.1055L59.7772 12.1303C59.7772 12.1303 32.4171 1.03894 30.5829 1.03894Z" fill="black" stroke="black"/>
<path d="M38.7539 45.4957C42.215 45.4957 45.0207 42.7067 45.0207 39.2663C45.0207 35.8259 42.215 33.0369 38.7539 33.0369C35.2928 33.0369 32.4871 35.8259 32.4871 39.2663C32.4871 42.7067 35.2928 45.4957 38.7539 45.4957Z" fill="#D9D9D9"/>
<path d="M20.1062 45.4957C23.5673 45.4957 26.373 42.7067 26.373 39.2663C26.373 35.8259 23.5673 33.0369 20.1062 33.0369C16.6451 33.0369 13.8394 35.8259 13.8394 39.2663C13.8394 42.7067 16.6451 45.4957 20.1062 45.4957Z" fill="#D9D9D9"/>
<path d="M28.3601 45.6476L29.7358 43.8243L31.2643 45.6476L29.7358 47.015L28.3601 45.6476Z" fill="#D9D9D9" stroke="black"/>
<path d="M26.373 39.2663C26.373 37.6141 25.7128 36.0297 24.5375 34.8613C23.3623 33.6932 21.7683 33.0369 20.1062 33.0369C18.4441 33.0369 16.8501 33.6932 15.6749 34.8613C14.4996 36.0297 13.8394 37.6141 13.8394 39.2663H20.1062H26.373Z" fill="#1A8AB3"/>
<path d="M45.0207 39.2663C45.0207 37.6141 44.3604 36.0297 43.1853 34.8613C42.0099 33.6932 40.416 33.0369 38.7539 33.0369C37.0918 33.0369 35.4979 33.6932 34.3225 34.8613C33.1474 36.0297 32.4871 37.6141 32.4871 39.2663H38.7539H45.0207Z" fill="#1A8AB2"/>
<path d="M32.4919 39.5701C32.4907 41.2222 33.1498 42.8072 34.324 43.9762C35.4985 45.1455 37.0918 45.8031 38.7539 45.8043C40.416 45.8056 42.0105 45.1507 43.1865 43.9832C44.3629 42.816 45.0244 41.232 45.0256 39.5798L38.7588 39.5749L32.4919 39.5701Z" fill="white"/>
<path d="M13.8719 39.5701C13.8633 41.2222 14.5152 42.81 15.6843 43.9841C16.8535 45.1586 18.444 45.8232 20.1061 45.8317C21.7681 45.8402 23.3655 45.1923 24.5469 44.03C25.7282 42.868 26.3968 41.287 26.4054 39.6348L20.1387 39.6023L13.8719 39.5701Z" fill="white"/>
<path d="M39.2124 42.1531C40.5631 42.1531 41.658 41.3368 41.658 40.3298C41.658 39.3229 40.5631 38.5066 39.2124 38.5066C37.8618 38.5066 36.7668 39.3229 36.7668 40.3298C36.7668 41.3368 37.8618 42.1531 39.2124 42.1531Z" fill="black"/>
<path d="M19.9534 42.1531C21.3041 42.1531 22.399 41.3368 22.399 40.3298C22.399 39.3229 21.3041 38.5066 19.9534 38.5066C18.6027 38.5066 17.5078 39.3229 17.5078 40.3298C17.5078 41.3368 18.6027 42.1531 19.9534 42.1531Z" fill="black"/>
<path d="M45.6321 37.8988H32.4871V40.3298H45.6321V37.8988Z" fill="black"/>
<path d="M26.6788 37.8988H13.5337V40.3298H26.6788V37.8988Z" fill="black"/>
</svg>
