<svg width="27" height="30" viewBox="0 0 27 30" fill="none" xmlns="http://www.w3.org/2000/svg">
<path d="M17.4375 7.34269H17.4341L9.55912 7.34875C7.389 7.34875 5.625 9.25232 5.625 11.5897V16.434C5.625 17.567 6.0345 18.6321 6.77813 19.4318C7.52063 20.2303 8.50838 20.6701 9.56025 20.6701H17.4398C19.6099 20.6701 21.375 18.7666 21.375 16.4292V11.5824C21.375 10.4483 20.9655 9.38318 20.2208 8.58225C19.4771 7.78253 18.4894 7.34269 17.4375 7.34269ZM17.4341 8.55438H17.4375C18.135 8.55438 18.7942 8.82702 19.3095 9.32381L15.0188 13.9464C14.2121 14.8152 12.807 14.8152 12.0004 13.9464L7.704 9.31896C8.199 8.84883 8.84812 8.56165 9.55912 8.56165L17.4341 8.55438ZM20.25 16.4304C20.25 18.1001 18.9889 19.4584 17.4398 19.4596H9.56025C8.80988 19.4596 8.10337 19.1458 7.57237 18.5751C7.04137 18.0044 6.75 17.2435 6.75 16.434V11.5897C6.75 11.1268 6.84675 10.6882 7.02 10.2956L11.205 14.8031C11.8215 15.4659 12.6394 15.8318 13.5101 15.8318C14.3809 15.8318 15.1988 15.4671 15.8141 14.8031L19.989 10.3065C20.16 10.7015 20.25 11.1353 20.25 11.5848V16.4316V16.4304ZM13.5 0.0725098C6.05587 0.0725098 0 6.59507 0 14.6129C0 22.6307 6.05587 29.1532 13.5 29.1532C20.9441 29.1532 27 22.6307 27 14.6129C27 6.59507 20.9441 0.0725098 13.5 0.0725098ZM13.5 27.9415C6.67688 27.9415 1.125 21.9618 1.125 14.6129C1.125 7.26393 6.67688 1.28421 13.5 1.28421C20.3231 1.28421 25.875 7.26393 25.875 14.6129C25.875 21.9618 20.3231 27.9415 13.5 27.9415Z" fill="#8AA8EC"/>
</svg>
