<svg width="28" height="30" viewBox="0 0 28 30" fill="none" xmlns="http://www.w3.org/2000/svg">
<path d="M27.036 27.4787L19.9913 19.891C21.8212 17.4805 22.7209 14.4046 22.5043 11.2996C22.2877 8.19456 20.9714 5.298 18.8275 3.20902C16.6837 1.12004 13.8764 -0.00152393 10.9864 0.0763055C8.09629 0.154135 5.34455 1.42541 3.30032 3.62717C1.2561 5.82893 0.075785 8.79272 0.00352417 11.9055C-0.0687366 15.0183 0.972584 18.0419 2.9121 20.351C4.85161 22.66 7.54092 24.0778 10.4238 24.3111C13.3066 24.5444 16.1624 23.5753 18.4005 21.6044L25.4453 29.192L27.036 27.4787ZM11.286 21.9218C9.50598 21.9218 7.76592 21.3533 6.28588 20.2882C4.80583 19.223 3.65228 17.7091 2.97109 15.9378C2.2899 14.1666 2.11167 12.2175 2.45894 10.3371C2.80621 8.45677 3.66338 6.72954 4.92205 5.37387C6.18072 4.0182 7.78437 3.09497 9.5302 2.72095C11.276 2.34692 13.0856 2.53888 14.7302 3.27257C16.3747 4.00625 17.7803 5.2487 18.7692 6.8428C19.7582 8.4369 20.286 10.311 20.286 12.2283C20.2833 14.7983 19.3343 17.2622 17.647 19.0795C15.9598 20.8967 13.6721 21.9189 11.286 21.9218Z" fill="#8AA8EC"/>
</svg>
