<svg width="27" height="30" viewBox="0 0 27 30" fill="none" xmlns="http://www.w3.org/2000/svg">
<path d="M8.4375 15.8246C7.43623 15.8246 6.45745 15.5048 5.62493 14.9056C4.7924 14.3065 4.14353 13.4549 3.76036 12.4586C3.37719 11.4622 3.27694 10.3659 3.47227 9.30817C3.66761 8.25047 4.14977 7.2789 4.85777 6.51634C5.56577 5.75377 6.46783 5.23446 7.44986 5.02407C8.43188 4.81368 9.44978 4.92166 10.3748 5.33435C11.2999 5.74705 12.0905 6.44593 12.6468 7.34261C13.2031 8.23929 13.5 9.2935 13.5 10.3719C13.4985 11.8176 12.9647 13.2035 12.0156 14.2258C11.0665 15.248 9.7797 15.823 8.4375 15.8246ZM8.4375 7.34269C7.88124 7.34269 7.33747 7.52035 6.87496 7.85321C6.41245 8.18606 6.05196 8.65917 5.83909 9.21269C5.62622 9.76621 5.57052 10.3753 5.67904 10.9629C5.78756 11.5505 6.05543 12.0903 6.44876 12.5139C6.8421 12.9376 7.34324 13.2261 7.88881 13.343C8.43438 13.4598 8.99988 13.3999 9.5138 13.1706C10.0277 12.9413 10.467 12.553 10.776 12.0549C11.085 11.5567 11.25 10.9711 11.25 10.3719C11.25 9.56852 10.9537 8.79803 10.4262 8.22993C9.89879 7.66184 9.18342 7.34269 8.4375 7.34269ZM16.875 27.9415V27.3357C16.875 24.9255 15.9861 22.614 14.4037 20.9097C12.8214 19.2054 10.6753 18.248 8.4375 18.248C6.19974 18.248 4.05362 19.2054 2.47129 20.9097C0.888948 22.614 0 24.9255 0 27.3357L0 27.9415C0 28.2629 0.118526 28.5711 0.329505 28.7983C0.540483 29.0256 0.826631 29.1532 1.125 29.1532C1.42337 29.1532 1.70952 29.0256 1.9205 28.7983C2.13147 28.5711 2.25 28.2629 2.25 27.9415V27.3357C2.25 25.5682 2.9019 23.8731 4.06228 22.6233C5.22266 21.3735 6.79647 20.6713 8.4375 20.6713C10.0785 20.6713 11.6523 21.3735 12.8127 22.6233C13.9731 23.8731 14.625 25.5682 14.625 27.3357V27.9415C14.625 28.2629 14.7435 28.5711 14.9545 28.7983C15.1655 29.0256 15.4516 29.1532 15.75 29.1532C16.0484 29.1532 16.3345 29.0256 16.5455 28.7983C16.7565 28.5711 16.875 28.2629 16.875 27.9415ZM27 21.883C27 20.2457 26.5599 18.6433 25.7329 17.2693C24.906 15.8954 23.7274 14.8087 22.3396 14.1403C20.9518 13.4719 19.4141 13.2504 17.912 13.5026C16.4099 13.7548 15.0077 14.47 13.8746 15.5616C13.763 15.6673 13.6719 15.7957 13.6066 15.9395C13.5413 16.0833 13.5031 16.2396 13.4942 16.3994C13.4854 16.5592 13.506 16.7193 13.5548 16.8704C13.6037 17.0216 13.6799 17.1608 13.7791 17.2801C13.8782 17.3993 13.9983 17.4962 14.1324 17.5652C14.2665 17.6342 14.412 17.6739 14.5604 17.682C14.7088 17.6901 14.8573 17.6664 14.9971 17.6123C15.137 17.5583 15.2656 17.4749 15.3754 17.367C16.1848 16.5875 17.1863 16.0769 18.2592 15.8969C19.3321 15.7168 20.4304 15.8751 21.4216 16.3526C22.4128 16.8301 23.2545 17.6064 23.8451 18.5877C24.4357 19.5691 24.75 20.7136 24.75 21.883C24.75 22.2044 24.8685 22.5126 25.0795 22.7398C25.2905 22.9671 25.5766 23.0947 25.875 23.0947C26.1734 23.0947 26.4595 22.9671 26.6705 22.7398C26.8815 22.5126 27 22.2044 27 21.883ZM19.6875 10.9778C18.6862 10.9778 17.7074 10.658 16.8749 10.0588C16.0424 9.4597 15.3935 8.60811 15.0104 7.61178C14.6272 6.61544 14.5269 5.5191 14.7223 4.46139C14.9176 3.40368 15.3998 2.43212 16.1078 1.66955C16.8158 0.906987 17.7178 0.387674 18.6999 0.177283C19.6819 -0.033108 20.6998 0.0748723 21.6248 0.487569C22.5499 0.900266 23.3405 1.59914 23.8968 2.49582C24.4531 3.3925 24.75 4.44672 24.75 5.52514C24.7485 6.97078 24.2147 8.35675 23.2656 9.37897C22.3165 10.4012 21.0297 10.9762 19.6875 10.9778ZM19.6875 2.4959C19.1312 2.4959 18.5875 2.67357 18.125 3.00642C17.6624 3.33928 17.302 3.81238 17.0891 4.3659C16.8762 4.91943 16.8205 5.5285 16.929 6.11612C17.0376 6.70373 17.3054 7.24349 17.6988 7.66714C18.0921 8.09079 18.5932 8.37929 19.1388 8.49618C19.6844 8.61306 20.2499 8.55307 20.7638 8.3238C21.2777 8.09452 21.717 7.70626 22.026 7.2081C22.3351 6.70994 22.5 6.12427 22.5 5.52514C22.5 4.72174 22.2037 3.95124 21.6762 3.38315C21.1488 2.81506 20.4334 2.4959 19.6875 2.4959Z" fill="#8AA8EC"/>
</svg>
