<svg width="15" height="15" viewBox="0 0 15 15" fill="none" xmlns="http://www.w3.org/2000/svg">
<path d="M14.9065 13.3985L11.0223 9.74036C12.0313 8.5782 12.5274 7.09526 12.4079 5.59829C12.2885 4.10131 11.5627 2.70484 10.3807 1.69771C9.19869 0.69058 7.65087 0.149854 6.05741 0.187377C4.46395 0.2249 2.94676 0.8378 1.81966 1.8993C0.692559 2.96081 0.0417846 4.3897 0.00194308 5.89042C-0.0378985 7.39114 0.536241 8.84888 1.60561 9.96211C2.67497 11.0753 4.15774 11.7589 5.74722 11.8714C7.3367 11.9838 8.91128 11.5166 10.1453 10.5664L14.0294 14.2245L14.9065 13.3985ZM6.22263 10.7194C5.24119 10.7194 4.2818 10.4454 3.46577 9.93183C2.64973 9.41831 2.01371 8.68842 1.63813 7.83446C1.26256 6.98051 1.16429 6.04084 1.35576 5.13428C1.54722 4.22773 2.01983 3.395 2.71381 2.74141C3.40779 2.08782 4.29197 1.64272 5.25455 1.4624C6.21712 1.28207 7.21486 1.37462 8.12158 1.72834C9.02831 2.08206 9.80331 2.68107 10.3486 3.44961C10.8938 4.21815 11.1848 5.12171 11.1848 6.04602C11.1834 7.28506 10.6601 8.47296 9.72981 9.34909C8.79954 10.2252 7.53824 10.7181 6.22263 10.7194Z" fill="#EDF2FB"/>
</svg>
